<?xml version="1.0" encoding="utf-8"?>
<!-- Generator: Adobe Illustrator 23.0.0, SVG Export Plug-In . SVG Version: 6.00 Build 0)  -->
<svg version="1.1" id="Layer_1" xmlns="http://www.w3.org/2000/svg" xmlns:xlink="http://www.w3.org/1999/xlink" x="0px" y="0px"
	 viewBox="0 0 60 60" style="enable-background:new 0 0 60 60;" xml:space="preserve">
<style type="text/css">
	.st0{fill:#0A6A56;}
	.st1{fill:#FFFFFF;stroke:#BD9302;stroke-miterlimit:10;}
</style>
<g transform="translate(0.000000,1277.000000) scale(0.100000,-0.100000)">
	<path class="st0" d="M298.11,12757.4c-4.3-8.63-12.88-45.56-14.78-63.81l-0.32-3.04l-1.95,2.13c-2.41,2.63-2.99,2.45-5.12-1.77
		c-2.95-5.86-4.99-14.35-5.17-21.76c-0.14-4.41-0.14-4.5-1.04-3.86c-2.41,1.73-4.8,2.95-5.21,2.72c-2.04-1.27-4.58-24.21-3.71-33.47
		c0.22-2.68,0.18-3.82-0.14-3.63c-0.22,0.14-1.67,1.14-3.17,2.18c-3.62,2.54-6.39,3.86-7.21,3.54c-1.18-0.46-1.72-3.63-1.67-10.63
		c0-9.72,1.59-19.21,4.3-25.98c0.64-1.54,1.09-2.86,1.04-2.91c-0.05-0.09-2.45,1.41-5.26,3.27c-7.66,5.04-8.29,5-8.83-0.77
		c-0.86-8.77,1.59-22.53,5.17-28.98c0.77-1.36,1.27-2.54,1.18-2.68c-0.14-0.09-1.63,0.59-3.31,1.54c-5.39,3-6.21,3.36-7.48,3.36
		c-1.86,0-2.31-1.32-2.04-5.86c0.41-7.13,3.99-18.8,8.48-27.84c1.45-2.95,2.45-5.36,2.17-5.36c-0.27,0-2.13,1-4.17,2.23
		c-6.49,3.86-6.57,3.91-7.7,2.82c-0.86-0.91-0.95-1.45-0.91-6.31c0-4.54,0.22-5.86,1.27-9.17c2.13-6.45,5.48-12.22,9.88-17.03
		c2.09-2.27,2.17-2.5,1.23-2.5c-0.59,0-2.31,0.32-3.81,0.68c-4.17,1-5.53,0.91-6.44-0.5c-0.72-1.13-0.72-1.41,0.05-5.13
		c1-4.91,3.99-12.31,7.79-19.3c1.63-2.95,2.85-5.45,2.76-5.54c-0.05-0.09-1.31,0.59-2.76,1.45c-3.54,2.09-4.89,2.36-6.12,1.13
		c-1.9-1.91-0.95-8.72,2.41-17.03c1.9-4.77,4.44-9.22,7.84-13.76l2.41-3.32h-2.26c-2.58,0-5.31-0.95-5.71-2.04
		c-0.54-1.36,0.81-4.95,5.71-15.44c2.72-5.81,5.07-11.13,5.26-11.81c0.5-2-0.77-1.23-2.13,1.32c-0.64,1.18-1.59,2.59-2.13,3.09
		c-0.81,0.86-1.09,0.91-2.26,0.41c-0.72-0.32-1.9-1.18-2.63-1.91c-1.54-1.59-1.99-1.63-1.99-0.27c0,1.82-1.72,7.9-3.35,11.99
		c-2.99,7.31-7.84,13.76-10.38,13.76c-1.54,0-2.41-1.23-3.04-4.31c-0.64-3.09-0.45-3.36-2.99,3.63
		c-3.44,9.49-8.38,17.49-10.84,17.49c-1.18,0-2.45-1.5-4.3-4.86c-1.31-2.36-1.82-2.45-1.82-0.41c0,3.77-2.13,11.13-4.53,15.62
		c-3.67,6.9-10.25,12.13-11.7,9.31c-0.22-0.45-0.68-2.13-0.95-3.77c-0.32-1.63-0.77-3.63-1.04-4.5l-0.5-1.54l-1.27,3.59
		c-2.81,7.72-9.02,18.21-13.5,22.8c-3.71,3.77-4.89,3.13-6.44-3.45c-0.5-2.32-1.09-4.18-1.27-4.18c-0.14,0-0.68,1.09-1.13,2.41
		c-1.72,5.04-7.48,12.67-13.28,17.71c-6.03,5.18-6.21,5.09-7.84-5.5l-0.54-3.36l-1.23,2.45c-0.68,1.32-1.77,3.22-2.41,4.22
		c-3.71,5.86-12.96,15.44-16.91,17.53c-1.99,1.04-2.13,1.04-2.72,0.27c-0.64-0.91-1.59-5.59-1.59-7.95c0-0.82-0.14-1.45-0.32-1.45
		c-0.22,0-1.5,1.14-2.85,2.54c-6.03,6.22-19.81,16.08-22.39,16.08c-0.45,0-0.86-0.86-1.23-2.68l-0.54-2.63l-3.58,2.82
		c-5.85,4.63-14.82,8.86-18.76,8.86h-1.63l0.32-2.27c0.18-1.23,0.18-2.27,0.05-2.27s-3.44,2.13-7.38,4.72
		c-16.4,10.81-37.21,21.94-43.69,23.39c-2.54,0.59-2.68-0.14-0.72-4.22c3.9-8.22,20.31-31.57,30.14-42.83
		c2.31-2.68,2.4-2.86,1.31-2.86c-0.59,0-1.77-0.14-2.54-0.27c-1.36-0.27-1.45-0.41-1.18-1.73c0.45-2.13,3.08-7.58,5.26-10.76
		c1.04-1.54,3.4-4.41,5.26-6.31c1.82-1.95,3.31-3.63,3.31-3.82c0-0.14-0.32-0.27-0.72-0.27c-1.82,0-4.26-1.09-4.26-1.86
		c0-2.45,13.47-17.21,20.13-22.03l1.31-0.95l-3.13-0.77c-4.13-1-6.52-2.09-6.52-2.91c0-3.82,16.45-16.35,25.11-19.17
		c2.13-0.68,1.77-0.95-2.9-2.04c-4.44-1.04-6.66-1.95-6.98-2.82c-0.41-1,4.89-6.31,9.66-9.72c4.58-3.27,10.01-6.04,13.47-6.81
		c1.31-0.32,2.31-0.68,2.22-0.91c-0.14-0.18-1.9-0.91-3.99-1.54c-6.39-2.13-6.84-3.72-1.95-7.22c5.9-4.22,15.27-8.49,23.07-10.49
		c4.76-1.18,4.85-1.04-1.95-3.22c-4.4-1.41-4.72-1.63-4.35-3.09c0.45-1.77,2.72-4.09,6.03-6.18c5.39-3.45,11.73-5.31,18.86-5.54
		c2.17-0.09,3.94-0.23,3.94-0.36c0-0.14-0.77-0.73-1.67-1.36c-4.94-3.32-5.71-4.95-3.27-7.04c2.99-2.5,10.87-5.59,19.13-7.49
		c2.41-0.54,4.4-1.09,4.4-1.14c0-0.09-1.31-0.59-2.95-1.14c-4.44-1.5-4.89-3.09-1.59-6.09c3.86-3.5,13.42-7.04,21.71-8.04l4.44-0.54
		l-1.54-2.23c-3.08-4.63-3.13-4.59,14.82-10.08c4.49-1.41,5.31-1.77,5.75-2.82c0.32-0.68,0.5-1.32,0.41-1.41
		c-0.09-0.14-1.36,0.41-2.81,1.13c-3.99,2-9.25,3.77-11.43,3.86c-2.17,0.09-2.99-0.64-2.58-2.36c0.14-0.59,0.41-1.68,0.54-2.45
		l0.27-1.41l-1.99,1.63c-4.58,3.77-12.46,6.36-16.27,5.36c-0.95-0.27-1.9-0.68-2.04-0.95c-0.18-0.23,0.41-1.68,1.31-3.18
		c0.91-1.5,1.63-2.82,1.63-2.91s-1.5,0.5-3.27,1.36c-4.4,2.04-10.7,3.86-14.68,4.18c-2.95,0.23-3.31,0.18-3.76-0.68
		c-0.41-0.73-0.22-1.36,0.86-3.45c0.77-1.36,1.36-2.59,1.36-2.72c0-0.09-1.18,0.32-2.58,0.91c-5.9,2.36-17.81,2.82-17.81,0.64
		c0-0.18,0.91-1.73,2.04-3.41c1.31-2,1.72-2.95,1.23-2.73c-5.48,2.13-17.63,3.04-20.58,1.5c-1.18-0.59-1-1.32,0.72-3.95l1.59-2.32
		h-3.94c-4.35,0-12.96-1.04-15.32-1.82c-1.72-0.59-1.86-0.91-0.81-2.54c0.41-0.59,0.68-1.18,0.59-1.23
		c-0.09-0.09-1.99-0.41-4.17-0.73c-5.8-0.77-12.1-3.32-12.1-4.86c0-0.32,0.45-0.91,1-1.27c1.18-0.86,0.95-0.95-3.71-1.63
		c-8.29-1.18-25.02-5.36-30.82-7.68c-3.71-1.5-3.94-2.32-1.04-3.59c4.76-2.04,18.71-5.13,30.27-6.72c3.27-0.45,5.98-0.86,6.07-0.95
		s-0.14-0.5-0.54-0.95c-0.45-0.45-0.77-1.04-0.77-1.32c0-1.41,9.29-4.22,13.91-4.22c1.54,0,2.85-0.09,2.85-0.18
		c0-0.14-0.41-0.95-0.95-1.82l-0.95-1.64l1.27-0.45c2.17-0.82,7.94-1.45,14.05-1.5l5.98-0.09l-1.23-1.82
		c-2.9-4.27-2.45-4.77,4.13-4.77c5.12,0,10.28,0.82,14.09,2.27l2.17,0.86l-0.64-1c-1.99-3.18-3.08-5.4-2.9-6
		c0.86-2.18,12.32-0.86,19.54,2.27c0.72,0.32,0.64-0.05-0.59-2.18c-1.63-2.86-1.59-4.18,0.18-4.5c2.81-0.54,11.33,1.77,17.13,4.72
		l3.58,1.77l-1.72-3c-1.5-2.77-1.59-3.09-0.95-3.72c1.04-1.04,5.48-0.91,9.11,0.32c2.68,0.86,6.12,2.91,9.52,5.5
		c1.18,0.95,1.27,0.95,1.04,0.14c-0.72-2.54-0.81-3.91-0.32-4.5c1.27-1.54,5.93-0.36,12.96,3.36c4.21,2.23,4.26,2.23,3.58,0.95
		c-0.91-1.73-0.86-3.45,0.05-3.82c2.99-1.14,11.29,1.73,16.59,5.77l2.09,1.59l0.27-1.73c0.32-2.04,1.27-2.77,3.04-2.27
		c0.81,0.23,1.54,0.18,2.04-0.23c0.68-0.5,0.41-0.64-2.31-1.09c-3.71-0.68-6.93-2.23-8.61-4.22l-1.23-1.45l1-0.82
		c0.54-0.45,1.4-0.82,1.86-0.82c1.45,0,0.95-0.77-0.72-1.09c-2.09-0.41-9.34-4.09-10.42-5.27c-1.09-1.18-0.54-2.23,1.5-2.91
		l1.45-0.5l-3.31-1.68c-3.54-1.86-7.57-5.27-7.57-6.45c0-0.5,0.68-0.91,2.04-1.27c1.86-0.5,2.76-1.27,1.54-1.27
		c-1.9,0-11.15-7.45-10.74-8.67c0.09-0.32,1-0.86,2.04-1.18l1.82-0.64l-3.13-3.04c-5.21-5.04-7.21-8.27-5.07-8.27
		c0.91,0,0.81-0.23-1.23-2.82c-3.27-4.18-4.67-8.08-2.85-8.08c0.64,0,0.68-0.09,0.14-0.82c-0.37-0.5-2.58-3.45-4.94-6.58
		c-4.89-6.54-8.88-12.67-9.29-14.49c-0.27-1.09-0.18-1.27,0.59-1.27c1.36,0,11.73,5.31,17.99,9.22c4.72,2.95,5.44,3.32,5.58,2.54
		c0.27-1.63,3.81-0.64,8.38,2.36c1.4,0.95,2.58,1.45,2.58,1.18c0.05-1.5,0.77-1.77,2.31-0.95c1.86,0.95,5.85,3.86,8.16,5.95
		l1.67,1.5l0.5-2.04c0.27-1.13,0.77-2.04,1.13-2.04c1.5,0,7.11,5.59,9.2,9.13l0.81,1.36l0.45-2.18c0.32-1.5,0.72-2.23,1.27-2.32
		c1.09-0.23,6.62,5.4,7.89,8.04l1,2l0.37-1.5c0.59-2.27,1.63-2.72,3.13-1.36c1.54,1.41,4.35,5.72,5.66,8.67
		c1.04,2.23,1.77,2.54,1.77,0.73c0-0.54,0.22-1.32,0.45-1.68c0.37-0.59,0.59-0.59,1.9,0.14c2.09,1.14,4.49,4.81,5.35,8.31l0.77,2.95
		l0.77-1.13c0.41-0.64,1.13-1.18,1.63-1.18c1.09,0,3.22,3.04,4.99,7.13c1.09,2.54,1.4,2.91,1.63,2.09c0.41-1.41,1.54-1.68,2.9-0.68
		c1.4,1.04,4.44,6.81,4.8,9.22c0.22,1.45,0.45,1.77,1.04,1.5c2.49-1,2.99-0.5,5.53,5.81c1.36,3.45,1.86,4.04,2.45,3.09
		c0.14-0.23,0.68-0.45,1.13-0.45c1.36,0,2.63,3.09,3.54,8.45c0.72,4.09,0.91,4.68,1.4,4.09c0.72-0.91,1.59-0.91,2.26-0.09
		c0.27,0.32,1.63,4.95,2.99,10.26c1.36,5.31,2.63,9.81,2.76,9.95c0.18,0.14,0.18-0.73,0.05-2c-0.68-5.45-1.72-17.85-2.04-24.53
		c-0.37-7.13-0.18-12.49,0.81-21.12c1.5-13.81,1.86-17.44,2.49-25.84c0.41-5.18,0.68-12.72,0.59-17.12l-0.14-7.86l2.9-0.14
		c2.13-0.09,2.95,0.04,3.13,0.5c0.14,0.32,0.09,6.36-0.05,13.4c-0.27,11.49-0.54,15.76-2.09,30.25c-0.27,2.36-0.77,7.27-1.18,10.85
		c-0.77,7.49-0.86,16.17-0.22,23.66c1.09,12.49,2.45,24.53,2.72,24.21c0.18-0.18,1.18-3.32,2.22-6.95
		c2.76-9.54,4.94-16.03,5.75-17.17c0.68-1,2.45-1.41,2.45-0.54c0,0.27,0.18,0.45,0.41,0.45c0.22,0,0.54-1.09,0.68-2.36
		c0.68-5,1.72-8.67,2.85-9.81c1-1,1.18-1.04,2.13-0.41c1.04,0.68,1.04,0.68,2.76-3.54c0.95-2.36,2.09-4.68,2.58-5.22
		c0.77-0.82,0.95-0.86,2.13-0.23l1.31,0.64l0.27-1.68c0.37-2.18,2.49-6.72,4.08-8.58c1.45-1.73,2.68-1.91,3.62-0.5
		c0.45,0.64,0.72,0.77,0.72,0.36c0-0.32,0.81-2.32,1.82-4.41c2.26-4.68,3.62-5.59,5.21-3.59l1.04,1.32l0.32-1.91
		c0.72-4.22,4.94-10.31,6.93-9.95c0.45,0.09,0.91,0.95,1.23,2.18l0.5,2.04l0.54-1.63c0.72-2.04,4.3-7.95,5.9-9.58
		c1.67-1.82,2.68-1.63,3.31,0.54l0.54,1.82l1.36-2.36c1.54-2.72,6.25-7.63,7.3-7.63c0.86,0,1.13,0.5,1.54,2.82l0.32,1.91l1.5-2.32
		c1.9-3,7.62-8.4,8.61-8.22c0.5,0.09,0.95,0.86,1.23,2.04l0.45,1.91l3.13-2.63c3.71-3.18,7.75-5.68,8.38-5.27
		c0.27,0.14,0.5,0.68,0.5,1.23c0,0.86,0.09,0.86,1.59-0.27c2.26-1.77,7.25-4,8.48-3.82c0.68,0.09,1,0.41,0.91,0.95
		c-0.09,0.41-0.05,0.77,0.09,0.77s1.95-1.09,3.99-2.45c7.16-4.68,17.99-10.26,19.85-10.26c1.99,0-3.81,9.67-11.7,19.53
		c-2.49,3.13-2.68,3.45-1.82,3.77c0.72,0.27,0.86,0.59,0.59,1.59c-0.41,1.73-2.31,4.86-4.13,6.9c-1.72,1.86-1.86,2.27-0.91,2.27
		c1.13,0,1.31,0.86,0.45,2.18c-0.41,0.68-2.49,3-4.62,5.18c-3.27,3.36-3.71,4-2.99,4.27c2.17,0.68,2.9,1.14,2.9,1.73
		c0,1.04-5.62,5.91-8.7,7.54l-2.81,1.5l2.13,0.64c1.59,0.45,2.13,0.86,2.13,1.5c0,1.18-4.21,4.77-7.66,6.49l-2.9,1.41l1.45,0.59
		c1.9,0.82,2.22,1.77,0.95,3.09c-1.18,1.27-6.76,4.09-9.7,4.86c-1.99,0.54-2.81,1.27-1.4,1.27c1.04,0,2.95,1,2.95,1.59
		c0,0.77-2.72,3.18-4.8,4.22c-1.04,0.54-3.27,1.18-4.94,1.5c-2.41,0.41-2.9,0.64-2.26,0.95c0.41,0.27,1.36,0.36,2.04,0.23
		c1.54-0.32,2.72,0.77,2.72,2.54c0,0.68,0.14,1.23,0.27,1.23c0.18,0,1.72-0.95,3.44-2.09c4.35-2.91,9.39-4.86,12.78-4.91
		c3.35-0.04,4.03,0.68,2.85,3.09c-0.41,0.91-0.68,1.63-0.59,1.63c0.05,0,2.13-1.04,4.62-2.27c5.07-2.63,8.56-3.77,10.7-3.54
		l1.5,0.14l-0.09,2.86l-0.05,2.82l1.86-1.63c4.44-3.77,12.69-6.59,16.36-5.59c1.99,0.54,2.04,1.27,0.27,4.27
		c-0.72,1.27-1.36,2.36-1.36,2.5s1.54-0.5,3.44-1.41c6.39-3.13,14.95-5.31,17.31-4.45c1.31,0.5,1.27,1.86-0.18,4.36
		c-0.64,1.14-1.09,2.09-1,2.23c0.14,0.09,1.04-0.23,2.09-0.73c3.08-1.5,7.7-2.41,12.69-2.45c6.3-0.05,6.49,0.32,2.58,6.31
		c-0.91,1.32-0.91,1.32,0,0.95c4.58-1.82,16.5-3.22,19.89-2.36c1.18,0.27,1.63,1.86,0.81,2.82c-0.22,0.23-0.81,1.14-1.36,2
		l-0.95,1.59l5.85,0.05c6.52,0.09,13.15,0.86,14.33,1.73c0.68,0.54,0.68,0.68,0,2c-0.41,0.77-0.72,1.5-0.72,1.68
		c0,0.14,1.31,0.23,2.85,0.23c4.62,0,12.64,2.45,13.74,4.13c0.18,0.32-0.09,0.91-0.64,1.36c-0.54,0.41-1,0.86-1,1
		c0,0.09,1.5,0.36,3.31,0.5c4.35,0.45,19.3,3.18,24.75,4.59c7.3,1.86,10.92,3.27,10.92,4.31c0,1.54-19.26,6.99-32.86,9.31
		c-6.17,1.04-5.98,0.95-4.8,2.23l1,1.09l-1.18,0.91c-2.36,1.86-10.06,4.13-13.96,4.18h-1.77l0.95,1.54c0.77,1.18,0.81,1.63,0.37,2
		c-0.95,0.82-8.11,1.95-14.33,2.27l-5.85,0.32l1.63,2.68c1.5,2.45,1.59,2.68,0.86,3.22c-2.04,1.45-12.91,1.09-18.58-0.68
		c-1.5-0.5-2.81-0.82-2.85-0.77c-0.09,0.05,0.68,1.27,1.67,2.77c2.9,4.32,2.49,4.81-4.03,4.81c-4.21,0-9.74-1-12.69-2.27l-1.95-0.86
		l1.36,2.41c2.54,4.45,1.63,5.36-4.49,4.45c-4.67-0.68-10.65-2.73-16-5.45c-0.18-0.09,0.41,1.09,1.36,2.63
		c1.9,3.22,1.72,4.09-0.81,4.63c-4.08,0.86-11.24-1.63-16.5-5.72c-1.4-1.14-1.67-1.23-1.45-0.5c0.22,0.45,0.5,1.73,0.64,2.82
		c0.22,1.73,0.14,1.95-0.86,2.45c-1.59,0.68-5.66-0.41-11.15-3c-2.36-1.14-4.44-2.04-4.67-2.04c-0.18,0,0,0.64,0.41,1.36
		c0.68,1.18,1.4,1.59,5.31,2.77c10.52,3.23,14.28,4.5,15.37,5.22c1.67,1.04,1.54,2.77-0.41,5.36l-1.63,2.09h2.04
		c2.95,0,10.38,1.54,14.33,2.95c11.56,4.22,15.59,9.27,8.97,11.36c-1.31,0.41-2.72,0.86-3.08,1c-0.37,0.09,1.99,0.86,5.21,1.73
		c8.93,2.27,16.05,5.22,18.27,7.63c1.67,1.77,1.18,2.95-2.31,5.54l-3.08,2.27l4.44,0.36c9.25,0.68,17.31,3.82,21.98,8.54
		c2.58,2.59,3.17,3.95,2.09,4.81c-0.32,0.27-2.58,1.14-5.03,1.95c-2.41,0.77-4.3,1.63-4.13,1.86c0.14,0.23,0.5,0.41,0.81,0.41
		c1.4,0,8.61,2.36,13.18,4.32c9.02,3.86,15.64,8.31,15.64,10.45c0,1.45-1.31,2.27-5.75,3.63c-2.09,0.64-3.76,1.32-3.76,1.5
		c0,0.23,1.18,0.59,2.63,0.91c3.08,0.64,8.61,3.41,12.74,6.31c4.3,3.09,8.75,7.09,9.66,8.63c0.77,1.32,0.77,1.41,0,2.09
		c-0.45,0.41-2.85,1.27-5.31,1.91c-2.49,0.64-4.85,1.27-5.21,1.41c-0.37,0.14,1,0.91,3.04,1.73c2.04,0.82,5.44,2.59,7.62,3.95
		c7.25,4.54,15.64,12.13,15.64,14.17c0,1.09-1.63,1.95-5.58,2.95c-1.95,0.5-3.67,1-3.76,1.14c-0.14,0.09,0.32,0.54,0.91,0.95
		c5.71,3.72,20.21,19.58,20.21,22.07c0,0.54-0.68,0.91-2.49,1.36c-1.36,0.32-2.49,0.73-2.49,0.86c0,0.14,1.13,1.36,2.54,2.72
		c1.36,1.32,3.54,3.77,4.76,5.45c2.68,3.5,6.3,10.58,6.44,12.54c0.09,1.32,0.05,1.36-2.26,1.5c-1.31,0.09-2.41,0.23-2.41,0.36
		c0,0.14,1.27,1.68,2.85,3.5c6.39,7.4,17.77,22.66,23.8,32.11c3.35,5.18,7.35,12.76,7.35,13.94c0,3.5-25.65-9.49-47.55-24.03
		l-6.07-4.04l0.32,2.32c0.41,2.91-0.09,3.13-4.08,2.04c-5.48-1.5-13.23-5.72-17.18-9.4c-1.13-1-2.13-1.77-2.22-1.68
		c-0.05,0.09-0.37,1.36-0.68,2.82c-0.41,1.95-0.77,2.59-1.36,2.59c-2.04,0-14.95-9.27-21.39-15.31c-1.9-1.82-3.58-3.32-3.67-3.32
		c-0.14,0-0.37,1.5-0.54,3.27c-0.37,4.04-1.45,6.54-2.76,6.36c-1.63-0.27-4.45-2.5-9.07-7.13c-5.26-5.22-8.56-9.49-11.06-14.26
		l-1.77-3.36l-0.54,4.04c-1,7.63-1.72,9.04-3.94,7.86c-1.9-1-9.42-8.4-11.97-11.72c-2.36-3.13-5.85-9.77-5.85-11.13
		c0-1.77-0.86-0.09-1.36,2.77c-1.09,5.77-2.36,7.68-4.44,6.54c-3.94-2.13-12.6-15.67-15.73-24.71c-0.68-1.95-1.36-3.45-1.45-3.32
		c-0.14,0.09-0.59,2-1.09,4.22c-0.45,2.18-0.95,4.45-1.09,5.04c-0.18,0.68-0.59,1-1.4,1c-1.82,0-3.44-1.09-6.25-4.09
		c-4.26-4.68-7.84-13.04-8.7-20.53c-0.18-1.45-0.45-2.5-0.64-2.41c-0.18,0.14-1.18,1.64-2.22,3.41c-2.09,3.54-3.04,3.95-5.17,2.27
		c-2.54-2-7.52-11.67-10.06-19.53c-0.41-1.36-0.95-2.68-1.13-2.86c-0.18-0.18-0.54,0.82-0.86,2.23c-0.5,2.68-1.5,4.27-2.63,4.27
		c-4.3,0-11.97-13.31-13.82-23.98l-0.54-3.22l-1.95,1.82c-2.85,2.63-4.26,2.5-5.98-0.59c-1.54-2.82-2.17-3.54-2.81-3.54
		c-0.86,0,0,2.23,4.53,11.81c4.99,10.45,6.52,14.35,6.3,15.94c-0.18,1.5-2.72,2.68-5.71,2.68h-2.36l2.41,3.32
		c3.4,4.54,5.93,8.99,7.84,13.76c3.35,8.31,4.3,15.13,2.41,17.03c-1.23,1.23-2.85,0.95-6.25-1.13c-1.4-0.86-2.58-1.5-2.68-1.41
		c-0.1,0.09,1.04,2.36,2.54,5.09c6.07,11.04,9.56,21.53,8.21,24.71c-0.45,1.13-0.77,1.32-2.41,1.32c-1-0.04-3.08-0.32-4.58-0.68
		c-4.49-1.09-4.76-0.95-2.63,1.27c4.35,4.59,7.94,10.54,10.15,17.12c1.36,3.91,1.5,4.86,1.54,9.63c0,4.91-0.09,5.4-1,6.31l-1,1
		l-5.21-3c-4.76-2.77-6.17-3.41-6.17-2.82c0,0.09,0.59,1.18,1.27,2.36c6.25,10.76,11.83,31.43,9.61,35.61
		c-0.77,1.41-2.68,1.04-6.84-1.36c-3.9-2.23-6.07-3.18-5.8-2.5c0.09,0.23,0.81,1.63,1.59,3.13c2.63,5,4.21,11.76,4.94,21.03
		c0.37,4.5-0.09,10.17-0.91,11.26c-0.81,1.18-2.22,0.59-7.97-3.18c-2.81-1.86-5.21-3.36-5.26-3.27c-0.05,0.04,0.5,1.68,1.27,3.68
		c2.68,6.9,4.08,15.62,4.08,25.66c0,6.72-0.5,9.72-1.67,10.17c-0.91,0.36-4.21-1.36-7.79-4c-1.54-1.14-2.85-2.09-2.95-2.09
		c-0.1,0,0.05,1.77,0.22,4c0.86,9.27-1.67,32.2-3.71,33.47c-0.41,0.27-2.76-1-5.39-2.86c-1.09-0.77-1.09-0.77-0.77,0.5
		c0.37,1.54-0.41,9.81-1.31,13.67c-1.5,6.4-4.99,14.58-6.52,15.17c-0.41,0.14-1.36-0.54-2.58-1.86l-1.9-2.09l-0.54,4.41
		c-1.23,10.13-5.21,30.43-8.43,43.47c-2.85,11.4-6.57,21.57-7.89,21.57C299.64,12759.99,298.83,12758.81,298.11,12757.4z"/>
</g>
<g transform="translate(0.000000,1280.000000) scale(0.100000,-0.100000)">
	<path class="st1" d="M295.38,12609.89c-1.28-0.38-1.81-1.86-7.95-21.44c-3.41-10.84-6.22-19.75-6.3-19.8
		c-0.06-0.08-11.72,3.26-25.95,7.36c-14.2,4.13-25.83,7.47-25.83,7.47c-0.31-0.32-12.3-39.44-12.12-39.58
		c0.12-0.13,3.1-1.04,6.62-2.04c12.06-3.47,14.29-4.51,15.64-7.39c0.93-1.94,0.5-5.22-1.45-11.82
		c-3.01-9.93-42.32-135.33-43.6-139.04c-2.05-5.88-3.23-8.04-5.09-9.14c-2.49-1.48-5.13-1.12-17.25,2.38
		c-3.69,1.06-6.78,1.88-6.81,1.83c-0.06-0.05-2.8-8.83-6.16-19.53c-3.32-10.66-6.1-19.56-6.16-19.69
		c-0.06-0.16,10.87-3.47,25.75-7.79c16.04-4.62,25.83-7.61,25.83-7.82c0-0.16-2.7-8.88-5.96-19.36
		c-4.29-13.68-5.96-19.41-5.96-20.38c0-2.33,0.16-2.41,15.38-6.81c14.39-4.19,14.64-4.24,16.21-2.84c0.91,0.82,0.56-0.13,7.86,23.17
		c2.8,9.03,5.16,16.54,5.22,16.71c0.09,0.22,2.73-0.44,7.74-1.88c4.17-1.2,7.64-2.22,7.67-2.22c0.03-0.03-2.73-8.96-6.13-19.88
		c-5.87-18.74-6.19-19.83-5.79-20.52c1.16-1.91,0.74-1.75,15.01-5.88c7.46-2.17,13.89-3.94,14.23-3.94c0.34,0,1.16,0.22,1.84,0.52
		l1.22,0.52l6.25,20.02l6.25,20.02l0.85-0.16c0.46-0.08,3.04-0.58,5.68-1.09c10.62-2.07,17.18-2.76,26.54-2.76
		c5.44,0.03,8.04,0.13,10.5,0.5c19.82,2.95,35.68,11.51,47.58,25.71c10.87,12.99,17.03,30.61,16.5,47.1
		c-0.19,5.67-0.71,9.19-2.08,14.31c-3.49,13.12-10.44,22.95-22.93,32.32l-1.93,1.48l2.64,0.52c4.06,0.79,10.78,3.02,14.6,4.85
		c6.59,3.12,11.66,6.68,17.21,12.01c13.96,13.46,21.1,32.98,18.85,51.56c-0.91,7.35-2.7,13.38-5.96,19.72
		c-8.38,16.44-22.77,27.54-46.73,36.1c-2.42,0.85-4.41,1.59-4.44,1.62c-0.03,0.03,2.79,9.17,6.28,20.26l6.33,20.25l-0.65,1.29
		c-0.37,0.71-0.8,1.35-0.93,1.43c-0.15,0.11-6.56,1.99-14.29,4.24l-13.99,4.08l-1.39-0.74l-1.39-0.74l-6.28-20.07
		c-3.46-11.03-6.41-20.1-6.62-20.15c-0.25-0.08-15.35,4.16-15.59,4.38c-0.06,0.03,2.7,8.94,6.1,19.77
		c5.34,17.07,6.16,19.86,6.02,20.95c-0.28,2.22-0.46,2.3-15.16,6.54C298.96,12609.73,296.66,12610.28,295.38,12609.89z
		 M313.57,12509.88c26.23-7.61,33.59-10.81,38.47-16.68c3.66-4.4,5.22-10.28,4.41-16.44c-1.74-12.61-8.69-21.12-19.48-23.85
		c-2.39-0.61-3.49-0.71-6.96-0.74c-7.92-0.05-13.77,1.17-34.92,7.34c-6.75,1.96-9.79,2.95-9.76,3.2c0.03,0.22,3.58,11.74,7.92,25.6
		c4.85,15.51,8.01,25.16,8.2,25.11C301.63,12513.35,307.07,12511.76,313.57,12509.88z M287.22,12416.28
		c15.22-4.43,19.58-5.88,25.13-8.45c5.06-2.36,8.17-4.38,10.96-7.05c6.22-6.02,8.52-13.35,7.09-22.56
		c-0.88-5.78-3.46-12.3-6.65-16.91c-1.87-2.68-5.71-6.37-8.54-8.24c-8.06-5.3-14.67-6.15-27.79-3.63
		c-4.51,0.88-6.87,1.51-20.04,5.36c-10.59,3.1-12.61,3.82-13.11,4.85c-0.71,1.43,0.15,4.48,10.28,36.98
		c4.01,12.8,7.36,23.41,7.4,23.62C272.12,12420.72,270.99,12421.02,287.22,12416.28z"/>
</g>
</svg>
