<?xml version="1.0" encoding="utf-8"?>
<!-- Generator: Adobe Illustrator 23.0.0, SVG Export Plug-In . SVG Version: 6.00 Build 0)  -->
<svg version="1.1" id="Layer_1" xmlns="http://www.w3.org/2000/svg" xmlns:xlink="http://www.w3.org/1999/xlink" x="0px" y="0px"
	 viewBox="0 0 348 112" style="enable-background:new 0 0 348 112;" xml:space="preserve">
<style type="text/css">
	.st0{enable-background:new    ;}
	.st1{fill:#FFFFFF;}
	.st2{fill:none;}
	.st3{fill:#0A6A56;}
	.st4{fill:#FFFFFF;stroke:#FFD700;stroke-width:2;stroke-miterlimit:10;}
</style>
<g class="st0">
	<path class="st1" d="M47.65,66.83c4.59-5.87,9.16-13.99,8.48-17.81c-0.23-1.32-1.7-1.67-2.94-1.54
		c-7.69,0.79-18.86,8.67-26.34,18.89c-7.97,11.15-12.7,23.37-10.15,30.94c1.11,3.37,4.43,4.94,8.89,4.15
		c9.68-1.71,24.81-14.54,37.86-31.98c0.57-0.76,0.68,0.16,0.46,0.48c-7.03,10.89-22.25,32.51-33.11,34.43
		c-6.14,1.08-17.94-0.49-20.26-9.36c-1.83-7.18,1.9-17.96,8.58-27.34C26.79,57,38.46,47.4,47.87,45.74
		c8.5-1.5,11.97,3.28,12.59,5.47c0.94,3.21-4.08,11.13-12.4,16.34C47.61,67.96,46.92,67.75,47.65,66.83z"/>
	<path class="st1" d="M61.57,84.15c-0.58,1.74-0.67,2.84-0.5,3.04c0.37,0.22-0.01,0.47-0.53,0.47s-4.5-2.11-4.28-3.56
		c0.13-0.87,0.54-2.02,1.17-3.49l1.75-3.92c1.38-3.06,3.76-8.16,4.6-10.09c0.82-1.97,1.16-3.81,0.26-4.08
		c0.08-0.06,0.96-0.4,2.32,0.15c2.43,1.02,3.35,2.5,3.42,3.15c0.1,0.55-1.41,3.44-3.18,6.94c0.91-1.47,1.92-2.92,3.02-4.38
		c2.18-2.78,6.74-8.31,8.79-9.14c0.92-0.35,2.89,1.79,3.14,3.99c0.06,0.6,0.14,2.41-0.39,3.11c-0.03-0.46-0.3-0.93-0.65-1.29
		c-0.45-0.44-1.49-0.72-2.69-0.37c-2.72,0.81-5.34,2.39-8.16,5.8C65.55,75.39,62.82,80.37,61.57,84.15z"/>
	<path class="st1" d="M86.62,69.66c-2.77,5.03-5.25,10.11-5.09,11.02c0.03,0.18,0.17,0.44,0.44,0.39
		c1.23-0.22,7.82-7.24,13.26-14.66c1.47-2.04,2.77-3.68,4.07-5.87c0.65-1.1,1.33-2.53,1-3.92c-0.1-0.31-0.23-0.52-0.48-0.62
		c-0.04,0.01,0.93-0.3,2.27,0.4c2.02,1.1,3.24,2.43,3.31,3.07c0.02,0.09-0.01,0.19-0.04,0.29c0,0-2.21,4.19-3.61,6.92
		c-2.4,4.74-5.6,11.58-8.12,18.02c3.94-6.88,11.97-17.72,14.05-20.24c0.27-0.33,0.75,0.29,0.64,0.45
		c-1.29,1.73-8.72,13.02-13.44,21.35c-2.1,3.75-5.12,9.25-6.13,13.36c-0.42,1.62-0.46,2.99-0.31,3.8c0.06,0.36,0.2,0.62,0.37,0.78
		c0.11,0.64-6.08-1.22-5.46-4.62c1.08-5.58,6.51-18.63,9.3-25.17c0.69-1.67,1.81-4.12,3.02-6.53c-4.27,6.61-9.63,14.21-12.03,16.04
		c-0.13,0.07-0.17,0.08-0.22,0.09c-1.86,0.33-6.19-2.7-6.59-4.98c-0.3-1.68,3.85-9.02,7.65-16.16c0.57-1.04,1.12-2.45,1.17-3.21
		c0.02-0.66-0.43-0.86-0.9-0.87c-0.04,0.01,0.94-0.54,2.24,0.21c2.56,1.52,3.45,3.09,3.52,3.74c0.02,0.09-0.01,0.19-0.04,0.29
		C90.46,63.03,87.97,67.22,86.62,69.66z"/>
	<path class="st1" d="M131.4,59.94c-0.52,2.11-1.55,4.49-2.98,6.76c-2.97,4.7-8.42,11-14.46,12.06c-1.5,0.26-4.88-0.31-6.45-1.77
		c-3.5,8.87-8.95,22.86-6.37,25.03c0.11,0.64-6.55-1.28-5.93-4.67c1.14-6.01,5.5-17.7,8.32-24.06c2.05-4.58,5.7-12.07,7.01-15.01
		c0.91-2.03,1.16-3.81,0.27-4.08c-0.04,0.01,0.69-0.36,2.06,0.25c1.26,0.53,2.07,1.13,2.88,1.98c2.34-2.43,5.05-4.08,8-4.6
		c3.36-0.59,7.51,1.68,7.95,4.13c0.15,0.86,0.09,1.86-0.09,2.97c1.87-0.56,4.58-1.37,5.93-1.7c0.27-0.05,0.58,0.65,0.18,0.76
		C135.96,58.47,132.85,59.45,131.4,59.94z M110.45,76.47c4.5-0.79,10.28-7.62,13.96-13.85c-5.78,2.28-15.95,10.55-15.45,13.41
		C109.07,76.62,109.91,76.57,110.45,76.47z M124.65,61.03l0.75-0.27c1.2-2.51,1.81-4.63,1.53-6.22c-0.15-0.86-0.72-1.42-1.86-1.22
		c-1.73,0.3-4.41,2.37-6.67,4.69c-2.42,2.49-4.5,5.57-7.15,10.49C115.96,64.63,120.09,62.82,124.65,61.03z"/>
	<path class="st1" d="M135.66,71.13c0.02,0.14,0.09,0.22,0.27,0.19c0.95-0.17,7.54-7.75,12.55-14.68c0.26-0.37,0.68-0.12,0.51,0.24
		c-0.77,1.5-2.51,4.38-4.96,8.04c-2.45,3.67-6.97,9.66-8.33,9.91c-0.64,0.11-1.98-0.31-2.8-0.73c-1.39-0.74-2.53-1.62-2.64-2.49
		c-0.04-0.23,0-0.52,0.05-0.76c0.49-2.57,3.38-9.27,6.34-15.37l5.55-11.57c-2.74,1.19-4.36,2.41-4.73,2.94
		c-0.44,0.69,1.03,1.32,1.88,1.59c0.2,0.06,0.08,0.22-0.05,0.24c-2.17,0.19-3.92-0.67-4.13-1.1c-1.1-1.96,0.93-4.57,1.61-4.97
		c1.39-0.9,3.89-1.86,7.29-2.79c0.7-1.62,1.25-3.03,1.62-4.08c0.67-2.04,0.82-3.61-0.07-3.88c-0.05,0.01,1.06-0.37,2.34,0.24
		c2.1,0.99,3.37,2.64,3.54,3.59c0.02,0.09-0.01,0.19-0.04,0.29l-1.17,2.41c5.82-1.03,15.79-1.38,18.11-0.71
		c0.15,0.02,0.02,0.14-0.02,0.14c-2.95,0.29-8.09,1.19-13.15,2.27c-0.99,0.22-3.66,0.79-6.52,1.57l-6.1,12.74
		C142.4,54.86,135.33,69.23,135.66,71.13z"/>
	<path class="st1" d="M156.37,48.74c1.01-1.44,3.6-3.49,5.65-3.85c3.91-0.69,7.05,1.71,8.07,4.81c3.26-0.39,6.42-1.08,7.08-1.34
		c0.53-0.19,1.19,0.12-0.14,0.82c-0.77,0.42-3.67,1.49-6.89,2.11c0.55,4.97-7.84,18.82-15.7,20.2c-4.54,0.8-8.98-0.67-9.66-4.53
		C143.8,61.45,150.75,51.46,156.37,48.74z M150.97,69.98c4-0.71,12.18-10.96,14.36-17.95c-2.12,0.23-4.08-0.03-5.36-0.37
		c-6.46,3.48-10.96,13.84-10.4,17.02C149.72,69.55,149.88,70.18,150.97,69.98z M163.42,46.18c-1.36,0.52-2.1,1.64-2.12,2.58
		c0.02,1.17,1.86,1.5,4.56,1.4c0.17-0.87,0.18-1.39,0.05-2.12C165.61,46.41,164.82,45.65,163.42,46.18z"/>
	<path class="st1" d="M204.03,75.07c-0.33,1.61-0.44,3.08-0.03,3.57l0.18,0.21c0.07,0.41-4.28-0.37-4.72-2.87
		c-0.32,0.06-0.64,0.07-0.92,0.12c-4.36,0.53-12.63-1.43-14.39-5.57c-3.07-7.29,10.51-17.46,26.93-23.49c1.1-2.02,2.2-4,3.13-5.61
		c-0.62-0.31-1.33-0.89-1.39-1.25c-0.08-0.45,0.9-0.72,2.87-1.26c4.44-7.53,8.9-14.65,8.65-17.41c-0.08-0.74-0.28-1.08-0.63-1.2
		c-0.05-0.04,0.11-0.16,0.26-0.14c0.33-0.01,1.09,0.09,2.3,0.81c2.36,1.41,3.39,2.78,3.4,3.57c0,0.56-1.63,3.8-4.21,8.29
		c-1,1.77-1.91,3.24-2.82,4.72c7.21-2.72,15.65-10.12,16.22-14.86c0.59-4.89-4.98-6.2-9.05-5.9c-7.59,0.54-15.85,3.97-22.33,8.62
		c-3.45,2.48-8.31,7.09-7.77,10.18c0.19,1.09,1.5,1.85,4.49,2.07c0.95,0.07,0.83,0.46,0.28,0.51c-2.25,0.26-3.94,0.23-5.72-0.54
		c-1.56-0.62-3.02-2-3.27-3.69c-0.7-4.75,4.26-10.13,11.81-14.08c7.25-3.81,16.49-6.19,23.69-5.49c8.78,0.89,12.79,8.24,12.58,10.76
		c-0.35,5.17-7.6,9.54-14.46,12.39c4.36,0.03,9.71,0.87,12.24,3.75c2.44-0.01,5.41,0.12,7.82,0.5c0.53,0.09,0.69,0.44-0.12,0.4
		c-2.65-0.14-4.76-0.14-7.02,0.07c0.38,0.54,0.73,1.23,0.89,1.86c1.4,6.36-5.46,13.99-16.19,20.9
		C219.73,69.49,212.07,72.81,204.03,75.07z M200.17,71.53c1.43-4.94,4.72-12.83,8.58-20.21c-1.2,0.63-2.46,1.23-3.69,1.92
		c-12.71,6.83-18.61,14.86-16.87,18.35c0.72,1.42,2.61,1.51,4.19,1.42C194.87,72.84,197.5,72.33,200.17,71.53z M216.18,47.99
		c-0.78,1.4-1.64,2.91-2.56,4.62c-3.36,6.22-5.95,11.73-7.83,16.99c6.26-2.51,12.57-6.06,18.26-9.69
		c9.69-6.16,14.79-13.95,14.44-17.26C229.64,43.84,222.97,45.34,216.18,47.99z M220.79,40.38c-0.84,1.32-1.73,2.7-2.66,4.31
		c6.38-1.83,12.75-2.9,19.91-3.23c-1.63-2.57-7.46-3.23-12.55-2.33C224.17,39.36,222.88,39.73,220.79,40.38z"/>
	<path class="st1" d="M270.94,33.28c-3.17,5.67-6.95,14.26-6.83,15.22c0.02,0.14,0.09,0.22,0.27,0.19
		c0.96-0.17,7.36-7.72,12.37-14.65c0.26-0.37,0.86-0.15,0.69,0.21c-0.77,1.5-2.51,4.38-4.96,8.04c-2.45,3.67-6.97,9.66-8.33,9.9
		c-1.73,0.3-5.35-2.15-5.65-3.88c-0.26-1.46,2.4-6.61,4.12-10.15c-4.27,6.61-9.68,14.5-12.07,16.33c-0.13,0.07-0.17,0.08-0.22,0.08
		c-1.82,0.32-5.97-2.23-6.35-4.41c-0.3-1.68,3.89-9.59,7.59-16.76c0.56-1.08,1.12-2.45,1.17-3.21c0.02-0.66-0.43-0.86-0.9-0.87
		c0.08-0.06,1.03-0.51,2.34,0.24c2.87,1.65,3.5,3.13,3.57,3.78c0.02,0.09-0.01,0.19-0.04,0.29c0,0-2.59,4.21-3.94,6.65
		c-2.77,5.03-4.6,9.53-4.44,10.44c0.03,0.18,0.17,0.44,0.44,0.39c1.54-0.27,13.95-15.53,16.42-20.1c0.57-1.04,1.28-2.57,0.98-3.73
		c-0.06-0.36-0.24-0.57-0.54-0.66c-0.04,0.01,1.02-0.32,2.36,0.33c2.36,1.18,3.45,2.81,3.52,3.46c0.02,0.09-0.01,0.19-0.04,0.29
		C272.46,30.71,271.75,31.77,270.94,33.28z"/>
	<path class="st1" d="M293.47,43.32c0.02,0.14,0.09,0.22,0.27,0.19c0.95-0.17,7.36-7.72,12.37-14.65c0.26-0.37,0.86-0.15,0.69,0.21
		c-0.77,1.5-2.51,4.38-4.96,8.04c-2.45,3.67-6.97,9.66-8.33,9.9c-0.64,0.11-2.01-0.25-2.83-0.63c-1.53-0.71-2.64-1.69-2.75-2.56
		c-0.04-0.23,0-0.52,0.05-0.76c0.27-1.41,1.21-4.01,2.54-7.1l-1.93,2.59c-4.22,5.57-8.82,10.83-10.6,11.15
		c-1.27,0.22-5.53-1.88-6.09-3.99c-0.21-0.9-0.05-2.15,0.41-3.54c2.06-6.41,10.41-17.54,16.57-19.51c0.4-0.12,0.49-0.13,0.54-0.14
		c4.27-0.75,6.12,0.66,6.55,1.8c2.98-6.24,6.29-12.97,7.38-16.35c0.67-2.04,0.82-3.61-0.07-3.88c-0.04,0.01,0.92-0.35,2.23,0.17
		c1.87,0.75,3.62,2.69,3.78,3.65c0.02,0.09-0.01,0.19-0.04,0.29l-8.84,18.43C300.21,27.04,293.13,41.41,293.47,43.32z M276.82,46.16
		c0.02,0.14,0.1,0.31,0.38,0.26c1.54-0.27,11.32-8.65,15.12-15.51c0.68-1.48,2.38-5.11,2.22-6.02c-0.1-0.54-0.75-0.8-1.25-0.72
		c-4.95,0.87-12.61,12.77-14.85,17.33C276.99,44.49,276.68,45.67,276.82,46.16z"/>
	<path class="st1" d="M313.45,30.38c6.53-3.63,12.01-5.49,14.91-6.38c0.36-0.11,0.35,0.41,0.14,0.54
		c-2.36,1.26-6.67,2.86-12.27,6.43c2.25,0.54,4.39,1.76,4.62,3.08c0.19,1.09,0.13,2.04-1.62,4.08c-2.99,3.25-8.63,6.63-12.81,7.37
		c-2.95,0.52-6.35-2.25-6.22-3.92c0.19-2.38,5.85-7.22,11.77-10.32c-2.75-0.45-5.81-1.04-6.18-3.13
		c-0.67-3.77,7.7-10.31,12.88-11.22c2.73-0.48,5.62,1.59,5.91,3.22c0.38,2.14-3.76,4.74-5.08,4.97c-0.27,0.05-0.57-0.04-0.46-0.2
		c0.67-0.96,3.49-4.41,3.33-5.27c-0.03-0.18-0.13-0.21-0.49-0.15c-1.96,0.34-5.18,2.23-7.54,4.28c-2.97,2.54-4.39,5.13-3.74,5.63
		C311.2,29.83,312.72,30.22,313.45,30.38z M316.02,32.45c-0.07-0.41-0.19-0.53-1.05-0.66c-1.47,0.96-2.93,1.97-4.5,3.18
		c-5,3.83-7.97,7.69-7.88,8.23c1,0.34,8.16-4.77,10.24-6.54C313.56,36.07,316.26,33.82,316.02,32.45z"/>
</g>
<rect x="67.39" y="58.45" class="st2" width="57.81" height="0.47"/>
<g transform="translate(0.000000,1277.000000) scale(0.100000,-0.100000)">
	<path class="st3" d="M3179.44,12288.01c-4.3-8.63-12.88-45.56-14.78-63.81l-0.32-3.04l-1.95,2.13c-2.41,2.63-2.99,2.45-5.12-1.77
		c-2.95-5.86-4.99-14.35-5.17-21.76c-0.14-4.41-0.14-4.5-1.04-3.86c-2.41,1.73-4.8,2.95-5.21,2.72c-2.04-1.27-4.58-24.21-3.71-33.47
		c0.22-2.68,0.18-3.82-0.14-3.63c-0.22,0.14-1.67,1.14-3.17,2.18c-3.62,2.54-6.39,3.86-7.21,3.54c-1.18-0.46-1.72-3.63-1.67-10.63
		c0-9.72,1.58-19.21,4.3-25.98c0.64-1.54,1.09-2.86,1.04-2.91c-0.05-0.09-2.45,1.41-5.26,3.27c-7.66,5.04-8.29,5-8.83-0.77
		c-0.86-8.77,1.58-22.53,5.17-28.98c0.77-1.36,1.27-2.54,1.18-2.68c-0.14-0.09-1.63,0.59-3.31,1.54c-5.39,3-6.21,3.36-7.48,3.36
		c-1.86,0-2.31-1.32-2.04-5.86c0.41-7.13,3.99-18.8,8.48-27.84c1.45-2.95,2.45-5.36,2.17-5.36s-2.13,1-4.17,2.23
		c-6.49,3.86-6.57,3.91-7.7,2.82c-0.86-0.91-0.95-1.45-0.91-6.31c0-4.54,0.22-5.86,1.27-9.17c2.13-6.45,5.48-12.22,9.88-17.03
		c2.09-2.27,2.18-2.5,1.23-2.5c-0.59,0-2.31,0.32-3.81,0.68c-4.17,1-5.53,0.91-6.44-0.5c-0.72-1.13-0.72-1.41,0.05-5.13
		c1-4.91,3.99-12.31,7.79-19.3c1.63-2.95,2.85-5.45,2.76-5.54c-0.05-0.09-1.31,0.59-2.76,1.45c-3.54,2.09-4.89,2.36-6.12,1.13
		c-1.9-1.91-0.95-8.72,2.41-17.03c1.9-4.77,4.44-9.22,7.84-13.76l2.41-3.32h-2.26c-2.58,0-5.31-0.95-5.71-2.04
		c-0.54-1.36,0.81-4.95,5.71-15.44c2.72-5.81,5.07-11.13,5.26-11.81c0.5-2-0.77-1.23-2.13,1.32c-0.64,1.18-1.59,2.59-2.13,3.09
		c-0.81,0.86-1.09,0.91-2.26,0.41c-0.72-0.32-1.9-1.18-2.63-1.91c-1.54-1.59-1.99-1.63-1.99-0.27c0,1.82-1.72,7.9-3.35,11.99
		c-2.99,7.31-7.84,13.76-10.38,13.76c-1.54,0-2.41-1.23-3.04-4.31c-0.64-3.09-0.45-3.36-2.99,3.63
		c-3.44,9.49-8.38,17.49-10.84,17.49c-1.18,0-2.45-1.5-4.3-4.86c-1.31-2.36-1.82-2.45-1.82-0.41c0,3.77-2.13,11.13-4.53,15.62
		c-3.67,6.9-10.25,12.13-11.7,9.31c-0.22-0.45-0.68-2.13-0.95-3.77c-0.32-1.63-0.77-3.63-1.04-4.5l-0.5-1.54l-1.27,3.59
		c-2.81,7.72-9.02,18.21-13.5,22.8c-3.71,3.77-4.89,3.13-6.44-3.45c-0.5-2.32-1.09-4.18-1.27-4.18c-0.14,0-0.68,1.09-1.13,2.41
		c-1.72,5.04-7.48,12.67-13.28,17.71c-6.03,5.18-6.21,5.09-7.84-5.5l-0.54-3.36l-1.23,2.45c-0.68,1.32-1.77,3.22-2.41,4.22
		c-3.71,5.86-12.96,15.44-16.91,17.53c-1.99,1.04-2.13,1.04-2.72,0.27c-0.64-0.91-1.58-5.59-1.58-7.95c0-0.82-0.14-1.45-0.32-1.45
		c-0.22,0-1.5,1.14-2.85,2.54c-6.03,6.22-19.81,16.08-22.39,16.08c-0.45,0-0.86-0.86-1.23-2.68l-0.54-2.63l-3.58,2.82
		c-5.85,4.63-14.82,8.86-18.76,8.86h-1.63l0.32-2.27c0.18-1.23,0.18-2.27,0.05-2.27s-3.44,2.13-7.39,4.72
		c-16.4,10.81-37.21,21.94-43.69,23.39c-2.54,0.59-2.68-0.14-0.73-4.22c3.9-8.22,20.31-31.57,30.14-42.83
		c2.31-2.68,2.4-2.86,1.31-2.86c-0.59,0-1.77-0.14-2.54-0.27c-1.36-0.27-1.45-0.41-1.18-1.73c0.45-2.13,3.08-7.58,5.26-10.76
		c1.04-1.54,3.4-4.41,5.26-6.31c1.82-1.95,3.31-3.63,3.31-3.82c0-0.14-0.32-0.27-0.73-0.27c-1.82,0-4.26-1.09-4.26-1.86
		c0-2.45,13.47-17.21,20.13-22.03l1.31-0.95l-3.13-0.77c-4.13-1-6.52-2.09-6.52-2.91c0-3.82,16.45-16.35,25.11-19.17
		c2.13-0.68,1.77-0.95-2.9-2.04c-4.44-1.04-6.66-1.95-6.98-2.82c-0.41-1,4.89-6.31,9.66-9.72c4.58-3.27,10.01-6.04,13.47-6.81
		c1.31-0.32,2.31-0.68,2.22-0.91c-0.14-0.18-1.9-0.91-3.99-1.54c-6.39-2.13-6.84-3.72-1.95-7.22c5.9-4.22,15.27-8.49,23.07-10.49
		c4.76-1.18,4.85-1.04-1.95-3.22c-4.4-1.41-4.72-1.63-4.35-3.09c0.45-1.77,2.72-4.09,6.03-6.18c5.39-3.45,11.73-5.31,18.86-5.54
		c2.17-0.09,3.94-0.23,3.94-0.36c0-0.14-0.77-0.73-1.67-1.36c-4.94-3.32-5.71-4.95-3.27-7.04c2.99-2.5,10.87-5.59,19.13-7.49
		c2.41-0.54,4.4-1.09,4.4-1.14c0-0.09-1.31-0.59-2.95-1.14c-4.44-1.5-4.89-3.09-1.59-6.09c3.86-3.5,13.42-7.04,21.71-8.04l4.44-0.54
		l-1.54-2.23c-3.08-4.63-3.13-4.59,14.82-10.08c4.48-1.41,5.31-1.77,5.75-2.82c0.32-0.68,0.5-1.32,0.41-1.41
		c-0.09-0.14-1.36,0.41-2.81,1.13c-3.99,2-9.25,3.77-11.43,3.86c-2.17,0.09-2.99-0.64-2.58-2.36c0.14-0.59,0.41-1.68,0.54-2.45
		l0.27-1.41l-1.99,1.63c-4.58,3.77-12.46,6.36-16.27,5.36c-0.95-0.27-1.9-0.68-2.04-0.95c-0.18-0.23,0.41-1.68,1.31-3.18
		s1.63-2.82,1.63-2.91s-1.5,0.5-3.27,1.36c-4.4,2.04-10.7,3.86-14.68,4.18c-2.95,0.23-3.31,0.18-3.76-0.68
		c-0.41-0.73-0.22-1.36,0.86-3.45c0.77-1.36,1.36-2.59,1.36-2.72c0-0.09-1.18,0.32-2.58,0.91c-5.9,2.36-17.81,2.82-17.81,0.64
		c0-0.18,0.91-1.73,2.04-3.41c1.31-2,1.72-2.95,1.23-2.73c-5.48,2.13-17.63,3.04-20.58,1.5c-1.18-0.59-1-1.32,0.73-3.95l1.59-2.32
		h-3.94c-4.35,0-12.96-1.04-15.32-1.82c-1.72-0.59-1.86-0.91-0.81-2.54c0.41-0.59,0.68-1.18,0.59-1.23
		c-0.09-0.09-1.99-0.41-4.17-0.73c-5.8-0.77-12.1-3.32-12.1-4.86c0-0.32,0.45-0.91,1-1.27c1.18-0.86,0.95-0.95-3.71-1.63
		c-8.29-1.18-25.02-5.36-30.82-7.68c-3.71-1.5-3.94-2.32-1.04-3.59c4.76-2.04,18.71-5.13,30.27-6.72c3.27-0.45,5.98-0.86,6.07-0.95
		c0.09-0.09-0.14-0.5-0.54-0.95c-0.45-0.45-0.77-1.04-0.77-1.32c0-1.41,9.29-4.22,13.91-4.22c1.54,0,2.85-0.09,2.85-0.18
		c0-0.14-0.41-0.95-0.95-1.82l-0.95-1.64l1.27-0.45c2.18-0.82,7.94-1.45,14.05-1.5l5.98-0.09l-1.23-1.82
		c-2.9-4.27-2.45-4.77,4.13-4.77c5.12,0,10.28,0.82,14.09,2.27l2.18,0.86l-0.64-1c-1.99-3.18-3.08-5.4-2.9-6
		c0.86-2.18,12.32-0.86,19.54,2.27c0.72,0.32,0.64-0.05-0.59-2.18c-1.63-2.86-1.59-4.18,0.18-4.5c2.81-0.54,11.33,1.77,17.13,4.72
		l3.58,1.77l-1.72-3c-1.5-2.77-1.58-3.09-0.95-3.72c1.04-1.04,5.48-0.91,9.11,0.32c2.68,0.86,6.12,2.91,9.52,5.5
		c1.18,0.95,1.27,0.95,1.04,0.14c-0.73-2.54-0.81-3.91-0.32-4.5c1.27-1.54,5.93-0.36,12.96,3.36c4.21,2.23,4.26,2.23,3.58,0.95
		c-0.91-1.73-0.86-3.45,0.05-3.82c2.99-1.14,11.29,1.73,16.59,5.77l2.09,1.59l0.27-1.73c0.32-2.04,1.27-2.77,3.04-2.27
		c0.81,0.23,1.54,0.18,2.04-0.23c0.68-0.5,0.41-0.64-2.31-1.09c-3.71-0.68-6.93-2.23-8.61-4.22l-1.23-1.45l1-0.82
		c0.54-0.45,1.4-0.82,1.86-0.82c1.45,0,0.95-0.77-0.72-1.09c-2.09-0.41-9.34-4.09-10.42-5.27c-1.09-1.18-0.54-2.23,1.5-2.91
		l1.45-0.5l-3.31-1.68c-3.54-1.86-7.57-5.27-7.57-6.45c0-0.5,0.68-0.91,2.04-1.27c1.86-0.5,2.76-1.27,1.54-1.27
		c-1.9,0-11.15-7.45-10.74-8.67c0.09-0.32,1-0.86,2.04-1.18l1.82-0.64l-3.13-3.04c-5.21-5.04-7.21-8.27-5.07-8.27
		c0.91,0,0.81-0.23-1.23-2.82c-3.27-4.18-4.67-8.08-2.85-8.08c0.64,0,0.68-0.09,0.14-0.82c-0.37-0.5-2.58-3.45-4.94-6.58
		c-4.89-6.54-8.88-12.67-9.29-14.49c-0.27-1.09-0.18-1.27,0.59-1.27c1.36,0,11.73,5.31,17.99,9.22c4.72,2.95,5.44,3.32,5.58,2.54
		c0.27-1.63,3.81-0.64,8.38,2.36c1.4,0.95,2.58,1.45,2.58,1.18c0.05-1.5,0.77-1.77,2.31-0.95c1.86,0.95,5.85,3.86,8.16,5.95
		l1.67,1.5l0.5-2.04c0.27-1.13,0.77-2.04,1.13-2.04c1.5,0,7.11,5.59,9.2,9.13l0.81,1.36l0.45-2.18c0.32-1.5,0.72-2.23,1.27-2.32
		c1.09-0.23,6.62,5.4,7.89,8.04l1,2l0.37-1.5c0.59-2.27,1.63-2.72,3.13-1.36c1.54,1.41,4.35,5.72,5.66,8.67
		c1.04,2.23,1.77,2.54,1.77,0.73c0-0.54,0.22-1.32,0.45-1.68c0.37-0.59,0.59-0.59,1.9,0.14c2.09,1.14,4.49,4.81,5.35,8.31l0.77,2.95
		l0.77-1.13c0.41-0.64,1.13-1.18,1.63-1.18c1.09,0,3.22,3.04,4.99,7.13c1.09,2.54,1.4,2.91,1.63,2.09c0.41-1.41,1.54-1.68,2.9-0.68
		c1.4,1.04,4.44,6.81,4.8,9.22c0.22,1.45,0.45,1.77,1.04,1.5c2.49-1,2.99-0.5,5.53,5.81c1.36,3.45,1.86,4.04,2.45,3.09
		c0.14-0.23,0.68-0.45,1.13-0.45c1.36,0,2.63,3.09,3.54,8.45c0.72,4.09,0.91,4.68,1.4,4.09c0.72-0.91,1.59-0.91,2.26-0.09
		c0.27,0.32,1.63,4.95,2.99,10.26c1.36,5.31,2.63,9.81,2.76,9.95c0.18,0.14,0.18-0.73,0.05-2c-0.68-5.45-1.72-17.85-2.04-24.53
		c-0.37-7.13-0.18-12.49,0.81-21.12c1.5-13.81,1.86-17.44,2.49-25.84c0.41-5.18,0.68-12.72,0.59-17.12l-0.14-7.86l2.9-0.14
		c2.13-0.09,2.95,0.04,3.13,0.5c0.14,0.32,0.09,6.36-0.05,13.4c-0.27,11.49-0.54,15.76-2.09,30.25c-0.27,2.36-0.77,7.27-1.18,10.85
		c-0.77,7.49-0.86,16.17-0.22,23.66c1.09,12.49,2.45,24.53,2.72,24.21c0.18-0.18,1.18-3.32,2.22-6.95
		c2.76-9.54,4.94-16.03,5.75-17.17c0.68-1,2.45-1.41,2.45-0.54c0,0.27,0.18,0.45,0.41,0.45c0.22,0,0.54-1.09,0.68-2.36
		c0.68-5,1.72-8.67,2.85-9.81c1-1,1.18-1.04,2.13-0.41c1.04,0.68,1.04,0.68,2.76-3.54c0.95-2.36,2.09-4.68,2.58-5.22
		c0.77-0.82,0.95-0.86,2.13-0.23l1.31,0.64l0.27-1.68c0.37-2.18,2.49-6.72,4.08-8.58c1.45-1.73,2.68-1.91,3.63-0.5
		c0.45,0.64,0.72,0.77,0.72,0.36c0-0.32,0.81-2.32,1.82-4.41c2.26-4.68,3.62-5.59,5.21-3.59l1.04,1.32l0.32-1.91
		c0.72-4.22,4.94-10.31,6.93-9.95c0.45,0.09,0.91,0.95,1.23,2.18l0.5,2.04l0.54-1.63c0.73-2.04,4.3-7.95,5.9-9.58
		c1.67-1.82,2.68-1.63,3.31,0.54l0.54,1.82l1.36-2.36c1.54-2.72,6.25-7.63,7.3-7.63c0.86,0,1.13,0.5,1.54,2.82l0.32,1.91l1.5-2.32
		c1.9-3,7.62-8.4,8.61-8.22c0.5,0.09,0.95,0.86,1.23,2.04l0.45,1.91l3.13-2.63c3.71-3.18,7.75-5.68,8.38-5.27
		c0.27,0.14,0.5,0.68,0.5,1.23c0,0.86,0.09,0.86,1.59-0.27c2.26-1.77,7.25-4,8.48-3.82c0.68,0.09,1,0.41,0.91,0.95
		c-0.09,0.41-0.05,0.77,0.09,0.77c0.14,0,1.95-1.09,3.99-2.45c7.16-4.68,17.99-10.26,19.85-10.26c1.99,0-3.81,9.67-11.7,19.53
		c-2.49,3.13-2.68,3.45-1.82,3.77c0.73,0.27,0.86,0.59,0.59,1.59c-0.41,1.73-2.31,4.86-4.13,6.9c-1.72,1.86-1.86,2.27-0.91,2.27
		c1.13,0,1.31,0.86,0.45,2.18c-0.41,0.68-2.49,3-4.62,5.18c-3.27,3.36-3.71,4-2.99,4.27c2.17,0.68,2.9,1.14,2.9,1.73
		c0,1.04-5.62,5.91-8.7,7.54l-2.81,1.5l2.13,0.64c1.59,0.45,2.13,0.86,2.13,1.5c0,1.18-4.21,4.77-7.66,6.49l-2.9,1.41l1.45,0.59
		c1.9,0.82,2.22,1.77,0.95,3.09c-1.18,1.27-6.76,4.09-9.7,4.86c-1.99,0.54-2.81,1.27-1.4,1.27c1.04,0,2.95,1,2.95,1.59
		c0,0.77-2.72,3.18-4.8,4.22c-1.04,0.54-3.27,1.18-4.94,1.5c-2.41,0.41-2.9,0.64-2.26,0.95c0.41,0.27,1.36,0.36,2.04,0.23
		c1.54-0.32,2.72,0.77,2.72,2.54c0,0.68,0.14,1.23,0.27,1.23c0.18,0,1.72-0.95,3.44-2.09c4.35-2.91,9.39-4.86,12.78-4.91
		c3.35-0.04,4.03,0.68,2.85,3.09c-0.41,0.91-0.68,1.63-0.59,1.63c0.05,0,2.13-1.04,4.62-2.27c5.07-2.63,8.56-3.77,10.7-3.54
		l1.5,0.14l-0.09,2.86l-0.05,2.82l1.86-1.63c4.44-3.77,12.69-6.59,16.36-5.59c1.99,0.54,2.04,1.27,0.27,4.27
		c-0.72,1.27-1.36,2.36-1.36,2.5s1.54-0.5,3.44-1.41c6.39-3.13,14.95-5.31,17.31-4.45c1.31,0.5,1.27,1.86-0.18,4.36
		c-0.64,1.14-1.09,2.09-1,2.23c0.14,0.09,1.04-0.23,2.09-0.73c3.08-1.5,7.7-2.41,12.69-2.45c6.3-0.05,6.49,0.32,2.58,6.31
		c-0.91,1.32-0.91,1.32,0,0.95c4.58-1.82,16.5-3.22,19.89-2.36c1.18,0.27,1.63,1.86,0.81,2.82c-0.22,0.23-0.81,1.14-1.36,2
		l-0.95,1.59l5.85,0.05c6.52,0.09,13.15,0.86,14.33,1.73c0.68,0.54,0.68,0.68,0,2c-0.41,0.77-0.73,1.5-0.73,1.68
		c0,0.14,1.31,0.23,2.85,0.23c4.62,0,12.64,2.45,13.74,4.13c0.18,0.32-0.09,0.91-0.64,1.36c-0.54,0.41-1,0.86-1,1
		c0,0.09,1.5,0.36,3.31,0.5c4.35,0.45,19.3,3.18,24.75,4.59c7.3,1.86,10.92,3.27,10.92,4.31c0,1.54-19.26,6.99-32.86,9.31
		c-6.17,1.04-5.98,0.95-4.8,2.23l1,1.09l-1.18,0.91c-2.36,1.86-10.06,4.13-13.96,4.18h-1.77l0.95,1.54c0.77,1.18,0.81,1.63,0.37,2
		c-0.95,0.82-8.11,1.95-14.33,2.27l-5.85,0.32l1.63,2.68c1.5,2.45,1.58,2.68,0.86,3.22c-2.04,1.45-12.91,1.09-18.58-0.68
		c-1.5-0.5-2.81-0.82-2.85-0.77c-0.09,0.05,0.68,1.27,1.67,2.77c2.9,4.32,2.49,4.81-4.03,4.81c-4.21,0-9.74-1-12.69-2.27l-1.95-0.86
		l1.36,2.41c2.54,4.45,1.63,5.36-4.49,4.45c-4.67-0.68-10.65-2.73-16-5.45c-0.18-0.09,0.41,1.09,1.36,2.63
		c1.9,3.22,1.72,4.09-0.81,4.63c-4.08,0.86-11.24-1.63-16.5-5.72c-1.4-1.14-1.67-1.23-1.45-0.5c0.22,0.45,0.5,1.73,0.64,2.82
		c0.22,1.73,0.14,1.95-0.86,2.45c-1.59,0.68-5.66-0.41-11.15-3c-2.36-1.14-4.44-2.04-4.67-2.04c-0.18,0,0,0.64,0.41,1.36
		c0.68,1.18,1.4,1.59,5.31,2.77c10.52,3.23,14.28,4.5,15.37,5.22c1.67,1.04,1.54,2.77-0.41,5.36l-1.63,2.09h2.04
		c2.95,0,10.38,1.54,14.33,2.95c11.56,4.22,15.59,9.27,8.97,11.36c-1.31,0.41-2.72,0.86-3.08,1c-0.37,0.09,1.99,0.86,5.21,1.73
		c8.93,2.27,16.05,5.22,18.27,7.63c1.67,1.77,1.18,2.95-2.31,5.54l-3.08,2.27l4.44,0.36c9.25,0.68,17.31,3.82,21.98,8.54
		c2.58,2.59,3.17,3.95,2.09,4.81c-0.32,0.27-2.58,1.14-5.03,1.95c-2.41,0.77-4.3,1.63-4.13,1.86c0.14,0.23,0.5,0.41,0.81,0.41
		c1.4,0,8.61,2.36,13.18,4.32c9.02,3.86,15.64,8.31,15.64,10.45c0,1.45-1.31,2.27-5.75,3.63c-2.09,0.64-3.76,1.32-3.76,1.5
		c0,0.23,1.18,0.59,2.63,0.91c3.08,0.64,8.61,3.41,12.74,6.31c4.3,3.09,8.75,7.09,9.66,8.63c0.77,1.32,0.77,1.41,0,2.09
		c-0.45,0.41-2.85,1.27-5.31,1.91c-2.49,0.64-4.85,1.27-5.21,1.41c-0.37,0.14,1,0.91,3.04,1.73c2.04,0.82,5.44,2.59,7.62,3.95
		c7.25,4.54,15.64,12.13,15.64,14.17c0,1.09-1.63,1.95-5.58,2.95c-1.95,0.5-3.67,1-3.76,1.14c-0.14,0.09,0.32,0.54,0.91,0.95
		c5.71,3.72,20.21,19.58,20.21,22.07c0,0.54-0.68,0.91-2.49,1.36c-1.36,0.32-2.49,0.73-2.49,0.86c0,0.14,1.13,1.36,2.54,2.72
		c1.36,1.32,3.54,3.77,4.76,5.45c2.68,3.5,6.3,10.58,6.44,12.54c0.09,1.32,0.05,1.36-2.26,1.5c-1.31,0.09-2.41,0.23-2.41,0.36
		c0,0.14,1.27,1.68,2.85,3.5c6.39,7.4,17.77,22.66,23.8,32.11c3.35,5.18,7.35,12.76,7.35,13.94c0,3.5-25.65-9.49-47.55-24.03
		l-6.07-4.04l0.32,2.32c0.41,2.91-0.09,3.13-4.08,2.04c-5.48-1.5-13.23-5.72-17.18-9.4c-1.13-1-2.13-1.77-2.22-1.68
		c-0.05,0.09-0.37,1.36-0.68,2.82c-0.41,1.95-0.77,2.59-1.36,2.59c-2.04,0-14.95-9.27-21.39-15.31c-1.9-1.82-3.58-3.32-3.67-3.32
		c-0.14,0-0.37,1.5-0.54,3.27c-0.37,4.04-1.45,6.54-2.76,6.36c-1.63-0.27-4.45-2.5-9.07-7.13c-5.26-5.22-8.56-9.49-11.06-14.26
		l-1.77-3.36l-0.54,4.04c-1,7.63-1.72,9.04-3.94,7.86c-1.9-1-9.42-8.4-11.97-11.72c-2.36-3.13-5.85-9.77-5.85-11.13
		c0-1.77-0.86-0.09-1.36,2.77c-1.09,5.77-2.36,7.68-4.44,6.54c-3.94-2.13-12.6-15.67-15.73-24.71c-0.68-1.95-1.36-3.45-1.45-3.32
		c-0.14,0.09-0.59,2-1.09,4.22c-0.45,2.18-0.95,4.45-1.09,5.04c-0.18,0.68-0.59,1-1.4,1c-1.82,0-3.44-1.09-6.25-4.09
		c-4.26-4.68-7.84-13.04-8.7-20.53c-0.18-1.45-0.45-2.5-0.64-2.41c-0.18,0.14-1.18,1.64-2.22,3.41c-2.09,3.54-3.04,3.95-5.17,2.27
		c-2.54-2-7.52-11.67-10.06-19.53c-0.41-1.36-0.95-2.68-1.13-2.86s-0.54,0.82-0.86,2.23c-0.5,2.68-1.5,4.27-2.63,4.27
		c-4.3,0-11.97-13.31-13.82-23.98l-0.54-3.22l-1.95,1.82c-2.85,2.63-4.26,2.5-5.98-0.59c-1.54-2.82-2.17-3.54-2.81-3.54
		c-0.86,0,0,2.23,4.53,11.81c4.99,10.45,6.52,14.35,6.3,15.94c-0.18,1.5-2.72,2.68-5.71,2.68h-2.36l2.41,3.32
		c3.4,4.54,5.93,8.99,7.84,13.76c3.35,8.31,4.3,15.13,2.41,17.03c-1.23,1.23-2.85,0.95-6.25-1.13c-1.4-0.86-2.58-1.5-2.68-1.41
		c-0.1,0.09,1.04,2.36,2.54,5.09c6.07,11.04,9.56,21.53,8.21,24.71c-0.45,1.13-0.77,1.32-2.41,1.32c-1-0.04-3.08-0.32-4.58-0.68
		c-4.49-1.09-4.76-0.95-2.63,1.27c4.35,4.59,7.94,10.54,10.15,17.12c1.36,3.91,1.5,4.86,1.54,9.63c0,4.91-0.09,5.4-1,6.31l-1,1
		l-5.21-3c-4.76-2.77-6.17-3.41-6.17-2.82c0,0.09,0.59,1.18,1.27,2.36c6.25,10.76,11.83,31.43,9.61,35.61
		c-0.77,1.41-2.68,1.04-6.84-1.36c-3.9-2.23-6.07-3.18-5.8-2.5c0.09,0.23,0.81,1.63,1.59,3.13c2.63,5,4.21,11.76,4.94,21.03
		c0.37,4.5-0.09,10.17-0.91,11.26c-0.81,1.18-2.22,0.59-7.97-3.18c-2.81-1.86-5.21-3.36-5.26-3.27c-0.05,0.04,0.5,1.68,1.27,3.68
		c2.68,6.9,4.08,15.62,4.08,25.66c0,6.72-0.5,9.72-1.67,10.17c-0.91,0.36-4.21-1.36-7.79-4c-1.54-1.14-2.85-2.09-2.95-2.09
		c-0.1,0,0.05,1.77,0.22,4c0.86,9.27-1.67,32.2-3.71,33.47c-0.41,0.27-2.76-1-5.39-2.86c-1.09-0.77-1.09-0.77-0.77,0.5
		c0.37,1.54-0.41,9.81-1.31,13.67c-1.5,6.4-4.99,14.58-6.52,15.17c-0.41,0.14-1.36-0.54-2.58-1.86l-1.9-2.09l-0.54,4.41
		c-1.23,10.13-5.21,30.43-8.43,43.47c-2.85,11.4-6.57,21.57-7.89,21.57C3180.98,12290.6,3180.17,12289.42,3179.44,12288.01z"/>
</g>
<g transform="translate(0.000000,1280.000000) scale(0.100000,-0.100000)">
	<path class="st4" d="M3176.72,12140.5c-1.28-0.38-1.81-1.86-7.95-21.44c-3.41-10.84-6.22-19.75-6.3-19.8
		c-0.06-0.08-11.72,3.26-25.95,7.36c-14.2,4.13-25.83,7.47-25.83,7.47c-0.31-0.32-12.3-39.44-12.12-39.58
		c0.12-0.13,3.1-1.04,6.62-2.04c12.06-3.47,14.29-4.51,15.64-7.39c0.93-1.94,0.5-5.22-1.45-11.82
		c-3.01-9.93-42.32-135.33-43.6-139.04c-2.05-5.88-3.23-8.04-5.09-9.14c-2.49-1.48-5.13-1.12-17.25,2.38
		c-3.69,1.06-6.78,1.88-6.81,1.83c-0.06-0.05-2.8-8.83-6.16-19.53c-3.32-10.66-6.1-19.56-6.16-19.69
		c-0.06-0.16,10.87-3.47,25.75-7.79c16.04-4.62,25.83-7.61,25.83-7.82c0-0.16-2.7-8.88-5.96-19.36
		c-4.29-13.68-5.96-19.41-5.96-20.38c0-2.33,0.16-2.41,15.38-6.81c14.39-4.19,14.64-4.24,16.21-2.84c0.91,0.82,0.56-0.13,7.86,23.17
		c2.8,9.03,5.16,16.54,5.22,16.71c0.09,0.22,2.73-0.44,7.74-1.88c4.17-1.2,7.64-2.22,7.67-2.22c0.03-0.03-2.73-8.96-6.13-19.88
		c-5.87-18.74-6.19-19.83-5.79-20.52c1.16-1.91,0.74-1.75,15.01-5.88c7.46-2.17,13.89-3.94,14.23-3.94c0.34,0,1.16,0.22,1.84,0.52
		l1.22,0.52l6.25,20.02l6.25,20.02l0.85-0.16c0.46-0.08,3.04-0.58,5.68-1.09c10.62-2.07,17.18-2.76,26.54-2.76
		c5.44,0.03,8.04,0.13,10.5,0.5c19.82,2.95,35.68,11.51,47.58,25.71c10.87,12.99,17.03,30.61,16.5,47.1
		c-0.19,5.67-0.71,9.19-2.08,14.31c-3.49,13.12-10.44,22.95-22.93,32.32l-1.93,1.48l2.64,0.52c4.06,0.79,10.78,3.02,14.6,4.85
		c6.59,3.12,11.66,6.68,17.21,12.01c13.96,13.46,21.1,32.98,18.85,51.56c-0.91,7.35-2.7,13.38-5.96,19.72
		c-8.38,16.44-22.77,27.54-46.73,36.1c-2.42,0.85-4.41,1.59-4.44,1.62c-0.03,0.03,2.79,9.17,6.28,20.26l6.33,20.25l-0.65,1.29
		c-0.37,0.71-0.8,1.35-0.93,1.43c-0.15,0.11-6.56,1.99-14.29,4.24l-13.99,4.08l-1.39-0.74l-1.39-0.74l-6.28-20.07
		c-3.46-11.02-6.41-20.1-6.62-20.15c-0.25-0.08-15.35,4.16-15.59,4.38c-0.06,0.03,2.7,8.94,6.1,19.77
		c5.34,17.07,6.16,19.86,6.02,20.95c-0.28,2.22-0.46,2.3-15.16,6.54C3180.29,12140.34,3177.99,12140.89,3176.72,12140.5z
		 M3194.91,12040.49c26.23-7.61,33.59-10.81,38.47-16.68c3.66-4.4,5.22-10.28,4.41-16.44c-1.74-12.61-8.69-21.12-19.48-23.85
		c-2.39-0.61-3.49-0.71-6.96-0.74c-7.92-0.05-13.77,1.17-34.92,7.34c-6.75,1.96-9.79,2.95-9.76,3.2c0.03,0.22,3.57,11.74,7.92,25.6
		c4.85,15.51,8.01,25.16,8.2,25.11C3182.96,12043.96,3188.41,12042.37,3194.91,12040.49z M3168.56,11946.89
		c15.22-4.43,19.58-5.88,25.13-8.45c5.06-2.36,8.17-4.38,10.96-7.05c6.22-6.02,8.52-13.35,7.09-22.56
		c-0.88-5.78-3.46-12.3-6.65-16.91c-1.87-2.68-5.71-6.37-8.54-8.24c-8.06-5.3-14.67-6.15-27.79-3.63
		c-4.51,0.88-6.87,1.51-20.04,5.36c-10.59,3.1-12.61,3.82-13.11,4.85c-0.71,1.43,0.15,4.48,10.28,36.98
		c4.01,12.8,7.36,23.41,7.4,23.62C3153.46,11951.33,3152.33,11951.63,3168.56,11946.89z"/>
</g>
</svg>
